<svg id="house2" xmlns="http://www.w3.org/2000/svg" xml:space="preserve" version="1.1" style="shape-rendering:geometricPrecision; text-rendering:geometricPrecision; image-rendering:optimizeQuality; fill-rule:evenodd; clip-rule:evenodd;" viewBox="0 0 1700 950" xmlns:xlink="http://www.w3.org/1999/xlink">
					 <g id="стіна">
					  <metadata id="CorelCorpID_0Corel-Layer"></metadata>
					  <g id="_211900356720">
					   <polygon class="wall-color" points="416,902 734,902 734,559 416,559 " style="fill: rgb(236, 230, 218);"></polygon>
					   <polygon class="wall-color" points="997,200 1128,291 1259,383 1259,902 734,902 734,383 866,291 " style="fill: rgb(236, 230, 218);"></polygon>
					  </g>
					 </g>
					 <g id="колір_x0020_дах">
					  <metadata id="CorelCorpID_1Corel-Layer"></metadata>
					  <g id="_211890042704">
					   <polygon class="roof-color" points="366,304 784,304 776,315 750,334 695,371 714,400 734,387 734,541 366,541 " style="fill: rgb(189, 91, 47);"></polygon>
					   <polygon class="roof-color str0" points="362,304 847,304 864,292 362,292 " style="fill: rgb(189, 91, 47);"></polygon>
					   <polygon class="roof-color str0" points="1279,400 1164,319 997,203 830,319 714,400 708,390 821,311 997,188 1172,311 1286,390 " style="fill: rgb(189, 91, 47);"></polygon>
					   <polygon class="roof-color str0" points="1003,168 1184,294 1298,373 1286,390 1172,311 997,188 821,311 708,390 696,373 810,294 991,168 997,163 " style="fill: rgb(189, 91, 47);"></polygon>
					   <path class="roof-color" d="M991 158l2 3 -24 11 3 3 -24 12 2 3 -24 12 3 3 -24 12 2 3 -24 12 3 3 -24 12 2 3 -24 12 3 3 -24 12 2 3 -24 12 3 3 -24 12 2 3 -24 12 3 3 -24 11 2 4 -24 11 3 3 -24 12 2 3 3 4 302 -210 302 211 5 -8 -24 -12 2 -3 -23 -11 2 -4 -24 -11 2 -3 -23 -12 2 -3 -24 -12 2 -3 -23 -12 2 -3 -24 -12 2 -3 -23 -12 2 -3 -24 -12 2 -3 -23 -12 2 -3 -24 -12 2 -3 -23 -12 2 -3 -24 -12 2 -3 -23 -11 1 -3c-3,-5 -7,-5 -11,0z" style="fill: rgb(189, 91, 47);"></path>
					  </g>
					 </g>
					 <g id="колір_x0020_вікна">
					  <metadata id="CorelCorpID_2Corel-Layer"></metadata>
					  <path class="window-color" d="M946 306l102 0 4 0 0 4 0 147 0 4 -4 0 -102 0 -5 0 0 -4 0 -147 0 -4 5 0zm69 115l28 0 0 -31 -28 0 0 31zm28 -106l-93 0 0 72 28 0 2 0 1 0 31 0 2 0 1 0 28 0 0 -72zm-93 75l0 31 28 0 0 -31 -28 0zm0 34l0 28 28 0 0 -28 -28 0zm31 28l31 0 0 -28 -31 0 0 28zm34 0l28 0 0 -28 -28 0 0 28zm-3 -62l-31 0 0 31 31 0 0 -31z" style="fill: rgb(255, 253, 246);"></path>
					  <path class="window-color" d="M818 527l146 0 5 0 0 4 0 242 0 5 -5 0 -146 0 -5 0 0 -5 0 -242 0 -4 5 0zm5 173l30 0 2 0 1 0 33 0 2 0 1 0 33 0 2 0 1 0 31 0 0 -164 -136 0 0 164zm136 39l-31 0 0 29 31 0 0 -29zm-31 -36l0 33 31 0 0 -33 -31 0zm-3 36l-33 0 0 29 33 0 0 -29zm-33 -36l0 33 33 0 0 -33 -33 0zm-3 36l-33 0 0 29 33 0 0 -29zm-33 -36l0 33 33 0 0 -33 -33 0zm-3 36l-30 0 0 29 30 0 0 -29zm0 -36l-30 0 0 33 30 0 0 -33z" style="fill: rgb(255, 253, 246);"></path>
					  <path class="window-color" d="M1030 527l145 0 5 0 0 4 0 242 0 5 -5 0 -145 0 -5 0 0 -5 0 -242 0 -4 5 0zm5 173l30 0 1 0 2 0 33 0 1 0 2 0 33 0 1 0 2 0 31 0 0 -164 -136 0 0 164zm136 39l-31 0 0 29 31 0 0 -29zm-31 -36l0 33 31 0 0 -33 -31 0zm-3 36l-33 0 0 29 33 0 0 -29zm-33 -36l0 33 33 0 0 -33 -33 0zm-3 36l-33 0 0 29 33 0 0 -29zm-33 -36l0 33 33 0 0 -33 -33 0zm-3 36l-30 0 0 29 30 0 0 -29zm0 -36l-30 0 0 33 30 0 0 -33z" style="fill: rgb(255, 253, 246);"></path>
					  <polygon class="window-color" points="526,636 668,636 673,636 673,641 673,871 665,871 529,871 521,871 521,641 521,636 " style="fill: rgb(255, 253, 246);"></polygon>
					 </g>
					 <g id="колір_x0020_водосток">
					  <metadata id="CorelCorpID_3Corel-Layer"></metadata>
					  <g id="_211890050256">
					   <g>
					    <path class="stream-color" d="M734 559l-19 0 0 -18 19 0 0 18zm-37 0l-332 0 0 -18 332 0 0 18z" style="fill: rgb(120, 45, 42);"></path>
					    <rect class="stream-color" transform="matrix(-5.5645E-014 0.998445 4.33598 5.4572E-014 487.781 540.055)" width="19.3288" height="1.25315" style="fill: rgb(120, 45, 42);"></rect>
					    <rect class="stream-color" transform="matrix(-5.5645E-014 0.998445 4.33598 5.4572E-014 617.573 540.055)" width="19.3288" height="1.25315" style="fill: rgb(120, 45, 42);"></rect>
					    <rect class="stream-color" x="396" y="589" width="19.7238" height="4.05904" style="fill: rgb(120, 45, 42);"></rect>
					    <rect class="stream-color" x="396" y="833" width="19.7238" height="4.05904" style="fill: rgb(120, 45, 42);"></rect>
					    <path class="stream-color" d="M396 582l3 -25c-2,-5 -5,-11 -5,-16l-12 0c0,6 -3,12 -6,17l3 23c0,147 0,130 0,276l-35 20 9 15 43 -25c0,-150 0,-136 0,-285z" style="fill: rgb(120, 45, 42);"></path>
					    <rect class="stream-color" x="377" y="585" width="21.4379" height="2.86837" style="fill: rgb(120, 45, 42);"></rect>
					    <rect class="stream-color" x="377" y="825" width="21.4379" height="2.86837" style="fill: rgb(120, 45, 42);"></rect>
					    <rect class="stream-color" x="377" y="745" width="21.4379" height="2.86837" style="fill: rgb(120, 45, 42);"></rect>
					    <rect class="stream-color" x="377" y="666" width="21.4379" height="2.86837" style="fill: rgb(120, 45, 42);"></rect>
					    <polygon class="stream-color" points="398,866 377,854 376,857 396,869 " style="fill: rgb(120, 45, 42);"></polygon>
					    <rect class="stream-color" transform="matrix(-5.5645E-014 0.998445 4.33598 5.4572E-014 360.926 540.055)" width="19.3288" height="1.25315" style="fill: rgb(120, 45, 42);"></rect>
					   </g>
					   <g>
					    <polygon class="stream-color" points="734,589 715,589 715,593 734,593 " style="fill: rgb(120, 45, 42);"></polygon>
					    <polygon class="stream-color" points="734,833 715,833 715,837 734,837 " style="fill: rgb(120, 45, 42);"></polygon>
					    <path class="stream-color" d="M715 410l4 -13 -5 3 -6 -10 -2 -3 -16 0 0 4 3 0c0,2 0,3 1,5l3 14c0,146 0,301 0,447l-34 20 9 15 43 -25c0,-150 0,-307 0,-457z" style="fill: rgb(120, 45, 42);"></path>
					    <polygon class="stream-color" points="717,585 695,585 695,588 717,588 " style="fill: rgb(120, 45, 42);"></polygon>
					    <path class="stream-color" d="M707 391l-14 0c0,6 6,11 14,11 5,0 9,-2 12,-5l-5 3 -6 -9 -1 0z" style="fill: rgb(120, 45, 42);"></path>
					    <polygon class="stream-color" points="717,825 695,825 695,828 717,828 " style="fill: rgb(120, 45, 42);"></polygon>
					    <polygon class="stream-color" points="717,745 695,745 695,748 717,748 " style="fill: rgb(120, 45, 42);"></polygon>
					    <polygon class="stream-color" points="717,666 695,666 695,669 717,669 " style="fill: rgb(120, 45, 42);"></polygon>
					    <polygon class="stream-color" points="717,410 695,410 695,412 717,412 " style="fill: rgb(120, 45, 42);"></polygon>
					    <polygon class="stream-color" points="717,505 695,505 695,508 717,508 " style="fill: rgb(120, 45, 42);"></polygon>
					    <polygon class="stream-color" points="716,866 696,854 694,857 715,869 " style="fill: rgb(120, 45, 42);"></polygon>
					   </g>
					   <g>
					    <rect class="stream-color" x="1259" y="589" width="19.7238" height="4.05904" style="fill: rgb(120, 45, 42);"></rect>
					    <rect class="stream-color" x="1259" y="833" width="19.7238" height="4.05904" style="fill: rgb(120, 45, 42);"></rect>
					    <path class="stream-color" d="M1279 410l-4 -13 4 3 7 -10 2 -3 16 0 0 4 -3 0c0,2 0,3 -1,5l-4 14c0,146 0,301 0,447l35 20 -9 15 -43 -25c0,-150 0,-307 0,-457z" style="fill: rgb(120, 45, 42);"></path>
					    <rect class="stream-color" x="1277" y="585" width="21.4379" height="2.86837" style="fill: rgb(120, 45, 42);"></rect>
					    <path class="stream-color" d="M1287 391l14 0c0,6 -6,11 -14,11 -5,0 -9,-2 -12,-5l4 3 7 -9 1 0z" style="fill: rgb(120, 45, 42);"></path>
					    <rect class="stream-color" x="1277" y="825" width="21.4379" height="2.86837" style="fill: rgb(120, 45, 42);"></rect>
					    <rect class="stream-color" x="1277" y="745" width="21.4379" height="2.86837" style="fill: rgb(120, 45, 42);"></rect>
					    <rect class="stream-color" x="1277" y="666" width="21.4379" height="2.86837" style="fill: rgb(120, 45, 42);"></rect>
					    <polygon class="stream-color" points="1277,866 1298,854 1299,857 1279,869 " style="fill: rgb(120, 45, 42);"></polygon>
					    <rect class="stream-color" x="1277" y="410" width="21.4379" height="2.86837" style="fill: rgb(120, 45, 42);"></rect>
					    <rect class="stream-color" x="1277" y="505" width="21.4379" height="2.86837" style="fill: rgb(120, 45, 42);"></rect>
					   </g>
					  </g>
					 </g>
					</svg>