<svg id="house1" xmlns="http://www.w3.org/2000/svg" xml:space="preserve" version="1.1" style="shape-rendering:geometricPrecision; text-rendering:geometricPrecision; image-rendering:optimizeQuality; fill-rule:evenodd; clip-rule:evenodd;" viewBox="0 0 1700 950" xmlns:xlink="http://www.w3.org/1999/xlink">
					 <g id="Layer_x0020_1">
					  <metadata id="CorelCorpID_0Corel-Layer"></metadata>
					  <path class="wall-color" d="M650 906l0 0 0 -52 -77 0 0 52 -281 0 0 -52 -77 0 0 -255 109 -76 109 -76 109 76 108 76 0 -17 408 0 0 -42 -7 0 0 -11 7 0 0 -29 -7 0 0 -7 7 0 0 -167 109 -76 109 -76 109 76 108 76 0 167 8 0 0 7 -8 0 0 29 8 0 0 11 -8 0 0 366 0 0 0 -53 -434 0 0 53 -1 0 -408 0zm-265 -338l96 0c0,-27 -22,-48 -48,-48 -27,0 -48,21 -48,48zm134 -118l7 0 0 -101 0 0 0 -4 33 -23 46 -33 46 33 33 23 0 4 0 0 0 101 7 0 0 10 -172 0 0 -10zm332 -161l46 33 33 23 0 4 0 0 0 101 7 0 0 10 -173 0 0 -10 8 0 0 -101 0 0 0 -4 33 -23 46 -33zm425 -43l-28 0c0,-16 12,-28 28,-28 15,0 28,12 28,28l-28 0zm-486 396l129 0 4 0 0 5 0 208 -7 0 -123 0 -8 0 0 -208 0 -5 5 0zm-327 -75l-28 0 -9 0c0,-20 15,-36 35,-37 11,9 20,22 20,37l-18 0z" style="fill: rgb(236, 230, 218);"></path>
					  <g>
					   <path id="Покрівля1" class="roof-color" d="M1451 172l-4 0 0 82 6 3 -2 2 21 11 -2 3 21 10 -2 3 21 10 -2 3 21 11 -2 2 21 11 -2 3 15 7 -3 4 -13 -9 -3 -1 -17 -12 -2 -2 -17 -12 -2 -1 -17 -12 -2 -1 -17 -12 -2 -2 -17 -11 -2 -2 -17 -12 -2 -1 -17 -12 -2 -1 -17 -12 -2 -2 -17 -11 -3 -2 -17 -12 -2 -1 -17 -12 -2 -1 -12 -9 0 0 111 78 116 81 -8 15 -118 -82 -145 -102 -146 102 -72 50 0 0 72 -50 146 -102 145 102 110 76 -5 8 -112 -77 -138 -97 -139 97 -79 55 0 167 -7 0 0 7 7 0 0 29 -7 0 0 11 7 0 0 42 -371 0 -2 3 21 10 -2 3 15 8 -2 5 -15 -10 -2 -2 -17 -12 -2 -1 -5 -4 -1 0 30 22 -9 14 -51 -36 -1 0 44 31 -5 9 -112 -78 -138 -97 -250 175 -5 -9 -7 5 -9 -14 108 -75 0 -1 -8 5 -2 1 -17 12 -2 2 -17 11 -2 2 -17 12 -2 1 -17 12 -2 1 -17 12 -2 2 -15 10 -2 -5 15 -8 -2 -3 21 -10 -2 -3 21 -10 -1 -3 21 -11 -2 -2 21 -11 -2 -3 21 -10 -2 -3 13 -6 0 -284 -3 0 0 -10 768 0 0 10 0 0 0 64 8 -4 -2 -3 21 -10 -2 -3 21 -10 -2 -3 21 -11 -2 -2 4 -2 0 -83 -1 0 0 -10 135 0 17 -9 -2 -3 21 -10 -2 -2c4,-5 7,-5 10,0l-1 2 21 10 -2 3 17 9 136 0 0 10zm-175 -31l-1 0 -2 1 -17 12 -2 2 -8 6 1 0 24 -17 5 -4zm-44 31l-1 0 -8 6 9 -6zm-174 121l0 0 63 -43 18 -13 -81 56zm-128 52l-79 -55 -79 55 0 4 0 0 0 101 -8 0 0 10 173 0 0 -10 -7 0 0 -101 0 0 0 -4zm-246 0l-79 -55 -79 55 0 4 0 0 0 101 -7 0 0 10 172 0 0 -10 -7 0 0 -101 0 0 0 -4zm530 -165l0 0 0 0 0 0zm-969 500l376 0 0 -64 -376 0 0 64z" style="fill: rgb(189, 91, 47);"></path>
					  </g>
					  <g>
					   <path class="window-color" d="M790 642l129 0 4 0 0 5 0 208 -7 0 -123 0 -8 0 0 -208 0 -5 5 0zm118 101c2,0 3,2 2,4 0,1 -1,2 -2,2 -2,11 -5,21 -8,30 1,1 1,2 1,3 0,2 -2,3 -4,2 -1,0 -2,-2 -2,-4 1,-1 1,-1 3,-2 1,-9 4,-19 8,-30 -1,-1 -2,-2 -1,-3 0,-2 2,-3 3,-2z" style="fill: rgb(255, 253, 246);"></path>
					   <path class="window-color" d="M963 624l68 0 4 0 0 4 0 142 0 5 -4 0 -68 0 -4 0 0 -5 0 -142 0 -4 4 0zm32 53l-27 0 0 29 27 0 0 -29zm-27 -3l27 0 2 0 1 0 28 0 0 -42 -58 0 0 42zm58 3l-28 0 0 29 28 0 0 -29zm-31 32l-27 0 0 29 27 0 0 -29zm0 32l-27 0 0 25 27 0 0 -25zm31 -32l-28 0 0 29 28 0 0 -29zm0 32l-28 0 0 25 28 0 0 -25z" style="fill: rgb(255, 253, 246);"></path>
					   <path class="window-color" d="M679 624l67 0 4 0 0 4 0 142 0 5 -4 0 -67 0 -5 0 0 -5 0 -142 0 -4 5 0zm32 53l-28 0 0 29 28 0 0 -29zm-28 -3l28 0 1 0 2 0 28 0 0 -42 -59 0 0 42zm59 3l-28 0 0 29 28 0 0 -29zm-31 32l-28 0 0 29 28 0 0 -29zm0 32l-28 0 0 25 28 0 0 -25zm31 -32l-28 0 0 29 28 0 0 -29zm0 32l-28 0 0 25 28 0 0 -25z" style="fill: rgb(255, 253, 246);"></path>
					   <polygon class="window-color" points="761,609 761,778 767,778 767,609 " style="fill: rgb(255, 253, 246);"></polygon>
					   <path class="window-color" d="M767 789l-115 0 0 117 115 0 0 -117zm-111 8l6 0 0 56 -6 0 0 -56zm100 0l6 0 0 56 -6 0 0 -56zm-10 0l6 0 0 56 -6 0 0 -56zm-10 0l6 0 0 56 -6 0 0 -56zm-10 0l6 0 0 56 -6 0 0 -56zm-10 0l6 0 0 56 -6 0 0 -56zm-10 0l6 0 0 56 -6 0 0 -56zm-10 0l6 0 0 56 -6 0 0 -56zm-10 0l6 0 0 56 -6 0 0 -56zm-10 0l6 0 0 56 -6 0 0 -56zm-10 0l6 0 0 56 -6 0 0 -56z" style="fill: rgb(255, 253, 246);"></path>
					   <polygon class="window-color" points="660,609 660,778 666,778 666,609 " style="fill: rgb(255, 253, 246);"></polygon>
					   <polygon class="window-color" points="650,778 773,778 773,789 650,789 " style="fill: rgb(255, 253, 246);"></polygon>
					   <polygon class="window-color" points="294,680 572,680 572,906 294,906 " style="fill: rgb(255, 253, 246);"></polygon>
					   <path class="window-color" d="M1308 312l94 0 4 0 0 4 0 135 0 4 -4 0 -94 0 -4 0 0 -4 0 -135 0 -4 4 0zm64 106l26 0 0 -28 -26 0 0 28zm26 -98l-86 0 0 67 26 0 1 0 2 0 28 0 2 0 1 0 26 0 0 -67zm-86 70l0 28 26 0 0 -28 -26 0zm0 31l0 26 26 0 0 -26 -26 0zm29 26l28 0 0 -26 -28 0 0 26zm31 0l26 0 0 -26 -26 0 0 26zm-3 -57l-28 0 0 28 28 0 0 -28z" style="fill: rgb(255, 253, 246);"></path>
					   <path class="window-color" d="M1149 312l95 0 4 0 0 4 0 135 0 4 -4 0 -95 0 -4 0 0 -4 0 -135 0 -4 4 0zm65 106l25 0 0 -28 -25 0 0 28zm25 -98l-85 0 0 67 25 0 2 0 1 0 29 0 1 0 2 0 25 0 0 -67zm-85 70l0 28 25 0 0 -28 -25 0zm0 31l0 26 25 0 0 -26 -25 0zm28 26l29 0 0 -26 -29 0 0 26zm32 0l25 0 0 -26 -25 0 0 26zm-3 -57l-29 0 0 28 29 0 0 -28z" style="fill: rgb(255, 253, 246);"></path>
					   <path class="window-color" d="M1120 589l127 0 4 0 0 4 0 211 0 4 -4 0 -127 0 -4 0 0 -4 0 -211 0 -4 4 0zm185 0l127 0 4 0 0 4 0 211 0 4 -4 0 -127 0 -4 0 0 -4 0 -211 0 -4 4 0zm4 151l26 0 1 0 2 0 28 0 2 0 1 0 29 0 1 0 2 0 26 0 0 -143 -118 0 0 143zm118 34l-26 0 0 26 26 0 0 -26zm-26 -31l0 28 26 0 0 -28 -26 0zm-3 31l-29 0 0 26 29 0 0 -26zm-29 -31l0 28 29 0 0 -28 -29 0zm-3 31l-28 0 0 26 28 0 0 -26zm-28 -31l0 28 28 0 0 -28 -28 0zm-3 31l-26 0 0 26 26 0 0 -26zm0 -31l-26 0 0 28 26 0 0 -28zm-211 -3l26 0 2 0 1 0 29 0 1 0 2 0 28 0 2 0 1 0 27 0 0 -143 -119 0 0 143zm119 34l-27 0 0 26 27 0 0 -26zm-27 -31l0 28 27 0 0 -28 -27 0zm-3 31l-28 0 0 26 28 0 0 -26zm-28 -31l0 28 28 0 0 -28 -28 0zm-3 31l-29 0 0 26 29 0 0 -26zm-29 -31l0 28 29 0 0 -28 -29 0zm-3 31l-26 0 0 26 26 0 0 -26zm0 -31l-26 0 0 28 26 0 0 -28z" style="fill: rgb(255, 253, 246);"></path>
					   <polygon class="window-color" points="549,349 661,349 661,450 651,450 651,358 558,358 558,450 549,450 " style="fill: rgb(255, 253, 246);"></polygon>
					   <path class="window-color" d="M622 419l28 0 0 -28 -28 0 0 28zm31 -63l0 0 0 2 0 92 -3 0 0 -28 -28 0 0 28 -3 0 0 -28 -28 0 0 28 -3 0 0 -28 -29 0 0 28 -3 0 0 -28 0 -2 0 -1 0 -28 0 -2 0 -1 0 -30 0 -2 2 0 30 0 1 0 2 0 28 0 1 0 2 0 30 0 0 0 1 0zm-65 3l-29 0 0 29 29 0 0 -29zm0 32l-29 0 0 28 29 0 0 -28zm31 -32l-28 0 0 29 28 0 0 -29zm0 32l-28 0 0 28 28 0 0 -28zm31 -32l-28 0 0 29 28 0 0 -29z" style="fill: rgb(255, 253, 246);"></path>
					   <polygon class="window-color" points="795,349 907,349 907,450 897,450 897,358 804,358 804,450 795,450 " style="fill: rgb(255, 253, 246);"></polygon>
					   <path class="window-color" d="M868 419l28 0 0 -28 -28 0 0 28zm31 -63l0 0 0 2 0 92 -3 0 0 -28 -28 0 0 28 -3 0 0 -28 -29 0 0 28 -3 0 0 -28 -28 0 0 28 -3 0 0 -28 0 -2 0 -1 0 -28 0 -2 0 -1 0 -30 0 -2 2 0 29 0 2 0 1 0 29 0 1 0 2 0 30 0 0 0 1 0zm-66 3l-28 0 0 29 28 0 0 -29zm0 32l-28 0 0 28 28 0 0 -28zm32 -32l-29 0 0 29 29 0 0 -29zm0 32l-29 0 0 28 29 0 0 -28zm31 -32l-28 0 0 29 28 0 0 -29z" style="fill: rgb(255, 253, 246);"></path>
					   <polygon class="window-color" points="948,609 948,778 941,778 941,609 " style="fill: rgb(255, 253, 246);"></polygon>
					   <polygon class="window-color" points="1058,778 936,778 936,789 1058,789 " style="fill: rgb(255, 253, 246);"></polygon>
					   <path class="window-color" d="M941 789l117 0 0 117 -117 0 0 -117zm111 8l-6 0 0 35 -4 0 0 -35 -6 0 0 35 0 0 0 5 0 0 0 16 6 0 0 -16 4 0 0 16 6 0 0 -16 5 0 0 -5 -5 0 0 -35zm-100 0l-5 0 0 56 5 0 0 -56zm10 0l-6 0 0 56 6 0 0 -56zm10 0l-6 0 0 56 6 0 0 -56zm10 0l-6 0 0 56 6 0 0 -56zm10 0l-6 0 0 56 6 0 0 -56zm10 0l-6 0 0 56 6 0 0 -56zm10 0l-6 0 0 56 6 0 0 -56zm10 0l-6 0 0 56 6 0 0 -56zm10 0l-6 0 0 56 6 0 0 -56z" style="fill: rgb(255, 253, 246);"></path>
					   <polygon class="window-color" points="1049,609 1049,778 1042,778 1042,609 " style="fill: rgb(255, 253, 246);"></polygon>
					  </g>
					  <path class="stream-color" d="M215 689l-21 0 0 -36 2 0 0 -3 -2 0 0 -8 4 -16c2,-2 2,-4 2,-6l3 0 0 -4 -12 0 -8 6 -1 -2 -2 -4 -6 0 -3 2 -1 -2 -3 0 0 4 3 0 0 0 0 0 0 0 0 0 0 0 0 0 0 1 0 0 0 0 0 0 0 0 0 0 0 0 0 0 0 0 0 0 0 0 0 0 0 0 0 0 0 1 0 0 0 0 0 0 0 0c0,1 1,2 1,3l4 16 0 9 -2 0 0 3 2 0 0 171 -2 0 0 3 2 0 0 30 -2 -1 -1 3 1 1 -36 21 10 16 45 -26 2 1 1 -3 -1 -1 0 -31 21 0 0 -5 -21 0 0 -5 2 0 0 -3 -2 0 0 -130 21 0 0 -5zm824 -319l-2 0 4 -14c2,-2 2,-4 2,-6l3 0 0 -4 -16 0 -4 2 -2 -2 -14 0 0 4 3 0 0 0 0 0 0 0 0 0 0 0 0 1 0 0 0 0 0 0c0,2 0,3 1,4l4 15 -2 0 0 3 2 0 0 189 -2 0 0 3 2 0 0 17 -331 0 -2 3 21 10 -1 2 313 0 0 140 -2 0 0 3 2 0 0 117 -2 -1 -2 3 2 1 -36 21 10 16 45 -26 2 1 1 -3 -1 -1 0 -31 20 0 1 0 0 -5 -1 0 -20 0 0 -92 2 0 0 -3 -2 0 0 -140 20 0 0 -15 -20 0 0 -11 21 0 0 -4 -21 0 0 -2 2 0 0 -3 -2 0 0 -189 2 0 0 -3zm474 0l2 0 -5 -14c-1,-2 -2,-4 -2,-6l-2 0 0 -4 16 0 4 2 1 -2 15 0 0 4 -3 0 0 0 0 0 0 0 0 0 0 0 0 0 0 0 0 0 0 0 0 0 0 1 0 0 0 0 0 0 0 0 0 0 0 0 0 0 0 0 0 0 0 0 0 0 0 1 0 0 0 0c0,1 -1,2 -1,3l-4 15 2 0 0 3 -2 0 0 189 2 0 0 3 -2 0 0 172 2 0 0 3 -2 0 0 117 2 -1 1 3 -2 1 36 21 -9 16 -45 -26 -2 1 -2 -3 2 -1 0 -31 -22 0 0 -5 22 0 0 -92 -2 0 0 -3 2 0 0 -166 -22 0 0 -4 22 0 0 -2 -2 0 0 -3 2 0 0 -189 -2 0 0 -3z" style="fill: rgb(120, 45, 42);"></path>
					 </g>
					</svg>