<?xml version="1.0" encoding="utf-8"?>
<!-- Generator: Adobe Illustrator 15.0.0, SVG Export Plug-In . SVG Version: 6.00 Build 0)  -->
<!DOCTYPE svg PUBLIC "-//W3C//DTD SVG 1.1//EN" "http://www.w3.org/Graphics/SVG/1.1/DTD/svg11.dtd">
<svg version="1.1" xmlns="http://www.w3.org/2000/svg" xmlns:xlink="http://www.w3.org/1999/xlink" x="0px" y="0px"
	 width="595.28px" height="460.958px" viewBox="0 0 595.28 460.958" enable-background="new 0 0 595.28 460.958"
	 xml:space="preserve">
<g id="Шар_5">
</g>
<g id="Шар_7">
</g>
<g id="Шар_6">
</g>
<g id="Шар_1">
	<polygon opacity="0.75" fill="#FFFFFF" points="352.776,338.299 242.507,338.299 242.507,228.03 242.507,146.137 210.073,178.571 
		210.073,370.733 385.21,370.733 385.21,338.299 	"/>
	<polygon opacity="0.75" fill="#FFFFFF" points="577.37,370.733 531.512,370.733 495.48,334.699 495.48,370.733 463.046,370.733 
		463.046,302.282 462.771,302.007 434.669,273.888 434.669,370.733 402.236,370.733 402.236,195.597 	"/>
	<polygon opacity="0.75" fill="#FFFFFF" points="193.048,370.733 193.048,338.299 96.21,338.299 193.048,241.462 193.048,195.597 
		17.911,370.733 	"/>
	<polygon opacity="0.75" fill="#FFFFFF" points="565.903,333.955 297.64,65.691 29.377,333.955 6.444,311.022 297.64,19.826 
		588.836,311.022 	"/>
	<g opacity="0.75">
		<path fill="#FFFFFF" d="M61.355,402.831c0,0.713-0.309,1.069-0.924,1.069H31.946c-0.501,0-0.925,0.214-1.271,0.642l-2.022,2.423
			c-0.347,0.381-0.52,0.855-0.52,1.425v4.062c0,0.333,0.115,0.641,0.347,0.926l2.311,2.779c0.231,0.285,0.481,0.428,0.751,0.428
			h23.517c0.809,0,1.482,0.333,2.022,0.998l4.218,5.559c0.5,0.666,0.751,1.401,0.751,2.209v11.046c0,0.76-0.231,1.425-0.693,1.995
			l-5.315,6.271c-0.656,0.666-1.349,0.998-2.08,0.998H17.559c-0.578,0-0.867-0.38-0.867-1.141v-5.202c0-0.759,0.289-1.14,0.867-1.14
			h30.103c0.5,0,0.944-0.166,1.329-0.499l1.964-2.494c0.269-0.332,0.405-0.713,0.405-1.141v-5.558
			c-0.039-0.143-0.154-0.332-0.347-0.57l-2.253-2.708c-0.231-0.285-0.598-0.475-1.098-0.57H23.567c-0.462,0-0.848-0.189-1.155-0.57
			l-4.333-5.915c-0.309-0.379-0.511-0.736-0.607-1.069c-0.097-0.332-0.145-0.759-0.145-1.283v-10.547
			c0-0.522,0.106-0.938,0.318-1.247c0.211-0.308,0.471-0.629,0.78-0.962l4.969-5.772c0.462-0.57,1.04-0.855,1.733-0.855h35.304
			c0.616,0,0.924,0.381,0.924,1.14V402.831z"/>
		<path fill="#FFFFFF" d="M108.042,403.116c0,0.76-0.289,1.14-0.867,1.14H92.152v40.263c0,0.761-0.307,1.141-0.92,1.141h-9.196
			c-0.575,0-0.862-0.38-0.862-1.141v-40.263H66.093c-0.617,0-0.925-0.38-0.925-1.14v-5.559c0-0.759,0.308-1.14,0.925-1.14h41.082
			c0.578,0,0.867,0.381,0.867,1.14V403.116z"/>
		<path fill="#FFFFFF" d="M153.225,402.831c0,0.713-0.309,1.069-0.924,1.069H126.3c-0.347,0-0.656,0.167-0.925,0.499l-2.658,3.136
			c-0.27,0.333-0.404,0.76-0.404,1.283v8.052h29.583c0.616,0,0.925,0.356,0.925,1.069v5.06c0,0.712-0.309,1.068-0.925,1.068h-29.583
			v8.124c0,0.476,0.134,0.88,0.404,1.212l3.698,4.275c0.269,0.333,0.597,0.499,0.982,0.499h24.961c0.616,0,0.924,0.381,0.924,1.14
			v5.202c0,0.761-0.309,1.141-0.924,1.141h-31.144c-0.616,0-1.194-0.261-1.733-0.784l-7.627-8.907
			c-0.347-0.428-0.52-0.95-0.52-1.568v-29.003c0-0.617,0.173-1.14,0.52-1.568l5.547-6.556c0.462-0.57,1.001-0.855,1.618-0.855
			h33.281c0.616,0,0.924,0.381,0.924,1.14V402.831z"/>
		<path fill="#FFFFFF" d="M199.738,402.831c0,0.713-0.309,1.069-0.924,1.069h-26.001c-0.347,0-0.656,0.167-0.925,0.499l-2.658,3.136
			c-0.27,0.333-0.404,0.76-0.404,1.283v8.052h29.583c0.616,0,0.925,0.356,0.925,1.069v5.06c0,0.712-0.309,1.068-0.925,1.068h-29.583
			v8.124c0,0.476,0.134,0.88,0.404,1.212l3.698,4.275c0.269,0.333,0.597,0.499,0.982,0.499h24.961c0.616,0,0.924,0.381,0.924,1.14
			v5.202c0,0.761-0.309,1.141-0.924,1.141h-31.144c-0.616,0-1.194-0.261-1.733-0.784l-7.627-8.907
			c-0.347-0.428-0.52-0.95-0.52-1.568v-29.003c0-0.617,0.173-1.14,0.52-1.568l5.547-6.556c0.462-0.57,1.001-0.855,1.618-0.855
			h33.281c0.616,0,0.924,0.381,0.924,1.14V402.831z"/>
		<path fill="#FFFFFF" d="M215.685,431.977c0,0.428,0.134,0.809,0.404,1.141l3.583,4.133c0.308,0.381,0.693,0.57,1.155,0.57h19.761
			c0.578,0,0.867,0.381,0.867,1.141v5.558c0,0.761-0.289,1.141-0.867,1.141h-26.11c-0.652,0-1.188-0.261-1.61-0.784l-7.644-8.907
			c-0.345-0.428-0.518-0.95-0.518-1.568v-36.842c0-0.759,0.306-1.14,0.92-1.14h9.139c0.613,0,0.92,0.381,0.92,1.14V431.977z"/>
		<path fill="#FFFFFF" d="M310.501,403.828c0.308,0.381,0.462,0.903,0.462,1.568v11.402c0,0.951-0.251,1.735-0.751,2.352
			l-4.854,5.629l6.413,16.747c0.154,0.381,0.261,0.712,0.318,0.997s0.087,0.642,0.087,1.069v0.783c0,0.381-0.049,0.689-0.145,0.927
			c-0.097,0.238-0.356,0.356-0.78,0.356h-8.725c-0.425,0-0.732-0.261-0.925-0.784l-5.836-16.96h-20.627v16.604
			c0,0.761-0.309,1.141-0.924,1.141h-9.071c-0.578,0-0.867-0.38-0.867-1.141v-46.035c0-1.377,0.539-2.067,1.618-2.067h37.269
			c0.693,0,1.271,0.285,1.733,0.855L310.501,403.828z M297.038,404.327c-0.231-0.285-0.54-0.428-0.925-0.428h-19.992
			c-0.655,0-0.982,0.452-0.982,1.354v15.464h21.09l3.467-3.991c0.269-0.332,0.404-0.665,0.404-0.998v-7.126
			c0-0.428-0.136-0.808-0.404-1.14L297.038,404.327z"/>
		<path fill="#FFFFFF" d="M361.231,403.686c0.424,0.523,0.636,1.165,0.636,1.924v30.857c0,0.76-0.212,1.401-0.636,1.924
			l-5.604,6.627c-0.347,0.428-0.809,0.642-1.387,0.642h-31.49c-0.577,0-1.04-0.214-1.387-0.642l-5.604-6.627
			c-0.425-0.522-0.636-1.164-0.636-1.924V405.61c0-0.759,0.211-1.401,0.636-1.924l5.604-6.627c0.347-0.428,0.81-0.642,1.387-0.642
			h31.49c0.578,0,1.04,0.214,1.387,0.642L361.231,403.686z M348,404.47c-0.309-0.38-0.675-0.57-1.098-0.57h-16.814
			c-0.424,0-0.79,0.19-1.098,0.57l-2.6,3.135c-0.271,0.333-0.404,0.761-0.404,1.283v24.301c0,0.523,0.134,0.951,0.404,1.282
			l2.6,3.136c0.308,0.381,0.674,0.57,1.098,0.57h16.814c0.423,0,0.789-0.189,1.098-0.57l2.601-3.136
			c0.269-0.331,0.404-0.759,0.404-1.282v-24.301c0-0.522-0.136-0.95-0.404-1.283L348,404.47z"/>
		<path fill="#FFFFFF" d="M413.003,403.686c0.424,0.523,0.636,1.165,0.636,1.924v30.857c0,0.76-0.212,1.401-0.636,1.924
			l-5.604,6.627c-0.347,0.428-0.809,0.642-1.387,0.642h-31.49c-0.577,0-1.04-0.214-1.387-0.642l-5.604-6.627
			c-0.425-0.522-0.636-1.164-0.636-1.924V405.61c0-0.759,0.211-1.401,0.636-1.924l5.604-6.627c0.347-0.428,0.81-0.642,1.387-0.642
			h31.49c0.578,0,1.04,0.214,1.387,0.642L413.003,403.686z M399.771,404.47c-0.309-0.38-0.675-0.57-1.098-0.57h-16.814
			c-0.424,0-0.79,0.19-1.098,0.57l-2.6,3.135c-0.271,0.333-0.404,0.761-0.404,1.283v24.301c0,0.523,0.134,0.951,0.404,1.282
			l2.6,3.136c0.308,0.381,0.674,0.57,1.098,0.57h16.814c0.423,0,0.789-0.189,1.098-0.57l2.601-3.136
			c0.269-0.331,0.404-0.759,0.404-1.282v-24.301c0-0.522-0.136-0.95-0.404-1.283L399.771,404.47z"/>
		<path fill="#FFFFFF" d="M456.685,402.831c0,0.713-0.289,1.069-0.867,1.069h-21.782c-0.347,0-0.636,0.143-0.867,0.425l-2.773,3.192
			c-0.231,0.285-0.347,0.639-0.347,1.064v11.067h25.365c0.578,0,0.867,0.384,0.867,1.151v5.18c0,0.769-0.289,1.151-0.867,1.151
			h-25.365v17.388c0,0.761-0.309,1.141-0.925,1.141h-9.187c-0.578,0-0.867-0.38-0.867-1.141v-39.123
			c0-0.665,0.153-1.187,0.463-1.568l5.604-6.627c0.423-0.522,0.943-0.784,1.56-0.784h29.121c0.578,0,0.867,0.381,0.867,1.14V402.831
			z"/>
		<path fill="#FFFFFF" d="M472.515,444.519c0,0.761-0.307,1.141-0.92,1.141h-9.138c-0.614,0-0.92-0.38-0.92-1.141v-46.961
			c0-0.759,0.306-1.14,0.92-1.14h9.138c0.613,0,0.92,0.381,0.92,1.14V444.519z"/>
		<path fill="#FFFFFF" d="M524.518,443.735c0,1.282-0.482,1.924-1.444,1.924h-5.721c-1.078,0-2.021-0.499-2.831-1.496
			l-27.503-31.854v32.21c0,0.761-0.289,1.141-0.867,1.141h-6.413c-0.578,0-0.867-0.38-0.867-1.141v-46.177
			c0-1.283,0.481-1.924,1.445-1.924h5.72c1.078,0,2.022,0.499,2.831,1.497l27.272,31.997v-32.353c0-0.759,0.308-1.14,0.925-1.14
			h6.587c0.577,0,0.866,0.381,0.866,1.14V443.735z"/>
		<path fill="#FFFFFF" d="M571.492,402.831c0,0.713-0.289,1.069-0.866,1.069h-25.077c-0.539,0-0.981,0.214-1.328,0.642l-3.063,3.563
			c-0.193,0.238-0.289,0.547-0.289,0.926v23.16c0,0.476,0.135,0.88,0.404,1.212l3.756,4.347c0.231,0.285,0.52,0.428,0.866,0.428
			h17.276c0.616,0,0.925-0.451,0.925-1.354v-17.459c0-0.759,0.289-1.14,0.866-1.14h7.107c0.615,0,0.925,0.381,0.925,1.14v24.158
			c0,1.425-0.56,2.138-1.676,2.138h-31.664c-0.577,0-1.06-0.214-1.444-0.642l-7.8-9.05c-0.347-0.428-0.521-0.95-0.521-1.568v-29.003
			c0-0.617,0.174-1.14,0.521-1.568l5.604-6.627c0.423-0.522,0.925-0.784,1.502-0.784h33.108c0.577,0,0.866,0.381,0.866,1.14V402.831
			z"/>
	</g>
</g>
<g id="Шар_4">
</g>
<g id="Шар_3">
</g>
<g id="Шар_2">
</g>
</svg>
