<?xml version="1.0" encoding="utf-8"?>
<!-- Generator: Adobe Illustrator 15.0.0, SVG Export Plug-In . SVG Version: 6.00 Build 0)  -->
<!DOCTYPE svg PUBLIC "-//W3C//DTD SVG 1.1//EN" "http://www.w3.org/Graphics/SVG/1.1/DTD/svg11.dtd">
<svg version="1.1" id="Шар_1" xmlns="http://www.w3.org/2000/svg" xmlns:xlink="http://www.w3.org/1999/xlink" x="0px" y="0px"
	 width="595.279px" height="460.958px" viewBox="0 0 595.279 460.958" enable-background="new 0 0 595.279 460.958"
	 xml:space="preserve">
<g id="Шар_5">
</g>
<g id="Шар_7">
</g>
<g id="Шар_6">
</g>
<polygon fill="#FFFFFF" enable-background="new    " points="352.776,338.299 242.507,338.299 242.507,228.03 242.507,146.137 
	210.073,178.571 210.073,370.733 385.21,370.733 385.21,338.299 "/>
<polygon fill="#FFFFFF" enable-background="new    " points="577.369,370.733 531.512,370.733 495.48,334.7 495.48,370.733 
	463.046,370.733 463.046,302.282 462.771,302.006 434.669,273.888 434.669,370.733 402.236,370.733 402.236,195.597 "/>
<polygon fill="#FFFFFF" enable-background="new    " points="193.048,370.733 193.048,338.299 96.21,338.299 193.048,241.461 
	193.048,195.597 17.911,370.733 "/>
<polygon fill="#FFFFFF" enable-background="new    " points="565.903,333.956 297.64,65.691 29.377,333.956 6.444,311.022 
	297.64,19.826 588.836,311.022 "/>
<g>
	<path fill="#FFFFFF" d="M61.355,402.831c0,0.713-0.309,1.07-0.924,1.07H31.946c-0.501,0-0.925,0.213-1.271,0.641l-2.022,2.424
		c-0.347,0.381-0.52,0.855-0.52,1.424v4.063c0,0.334,0.115,0.641,0.347,0.926l2.312,2.779c0.23,0.285,0.48,0.428,0.751,0.428h23.517
		c0.81,0,1.482,0.334,2.022,0.998l4.218,5.559c0.5,0.666,0.751,1.402,0.751,2.209v11.047c0,0.76-0.231,1.426-0.693,1.994
		l-5.314,6.271c-0.656,0.666-1.35,0.998-2.08,0.998H17.559c-0.578,0-0.867-0.379-0.867-1.141v-5.201c0-0.76,0.289-1.141,0.867-1.141
		h30.104c0.5,0,0.943-0.166,1.329-0.5l1.964-2.494c0.269-0.332,0.404-0.713,0.404-1.141v-5.557c-0.039-0.145-0.153-0.332-0.347-0.57
		l-2.253-2.709c-0.231-0.285-0.598-0.475-1.098-0.57H23.567c-0.462,0-0.848-0.188-1.154-0.568l-4.333-5.916
		c-0.31-0.379-0.512-0.736-0.607-1.068c-0.097-0.332-0.145-0.76-0.145-1.283v-10.547c0-0.521,0.105-0.938,0.317-1.248
		c0.211-0.307,0.472-0.629,0.78-0.961l4.969-5.773c0.462-0.568,1.04-0.854,1.733-0.854h35.304c0.616,0,0.924,0.381,0.924,1.139
		V402.831z"/>
	<path fill="#FFFFFF" d="M108.042,403.116c0,0.76-0.289,1.141-0.867,1.141H92.152v40.262c0,0.762-0.307,1.143-0.92,1.143h-9.195
		c-0.575,0-0.862-0.381-0.862-1.143v-40.262H66.093c-0.617,0-0.925-0.381-0.925-1.141v-5.559c0-0.76,0.308-1.141,0.925-1.141h41.082
		c0.578,0,0.867,0.381,0.867,1.141V403.116z"/>
	<path fill="#FFFFFF" d="M153.225,402.831c0,0.713-0.309,1.07-0.924,1.07H126.3c-0.347,0-0.656,0.166-0.925,0.498l-2.658,3.137
		c-0.271,0.332-0.404,0.76-0.404,1.283v8.051h29.583c0.616,0,0.925,0.355,0.925,1.07v5.059c0,0.713-0.309,1.068-0.925,1.068h-29.583
		v8.125c0,0.475,0.134,0.879,0.404,1.211l3.698,4.275c0.269,0.332,0.597,0.498,0.981,0.498h24.961c0.616,0,0.925,0.381,0.925,1.141
		v5.201c0,0.762-0.31,1.143-0.925,1.143h-31.144c-0.616,0-1.194-0.262-1.733-0.785l-7.627-8.906c-0.347-0.428-0.52-0.951-0.52-1.568
		v-29.002c0-0.617,0.173-1.141,0.52-1.568l5.547-6.557c0.462-0.57,1.001-0.855,1.618-0.855H152.3c0.616,0,0.924,0.381,0.924,1.141
		L153.225,402.831L153.225,402.831z"/>
	<path fill="#FFFFFF" d="M199.738,402.831c0,0.713-0.309,1.07-0.924,1.07h-26.001c-0.347,0-0.655,0.166-0.925,0.498l-2.658,3.137
		c-0.27,0.332-0.403,0.76-0.403,1.283v8.051h29.583c0.615,0,0.925,0.355,0.925,1.07v5.059c0,0.713-0.31,1.068-0.925,1.068h-29.583
		v8.125c0,0.475,0.134,0.879,0.403,1.211l3.698,4.275c0.269,0.332,0.597,0.498,0.982,0.498h24.961c0.615,0,0.924,0.381,0.924,1.141
		v5.201c0,0.762-0.31,1.143-0.924,1.143h-31.145c-0.616,0-1.193-0.262-1.732-0.785l-7.627-8.906
		c-0.348-0.428-0.521-0.951-0.521-1.568v-29.002c0-0.617,0.173-1.141,0.521-1.568l5.547-6.557c0.462-0.57,1.001-0.855,1.617-0.855
		h33.281c0.616,0,0.924,0.381,0.924,1.141L199.738,402.831L199.738,402.831z"/>
	<path fill="#FFFFFF" d="M215.685,431.977c0,0.428,0.134,0.809,0.404,1.141l3.583,4.133c0.308,0.381,0.692,0.57,1.155,0.57h19.761
		c0.578,0,0.867,0.381,0.867,1.141v5.559c0,0.762-0.289,1.141-0.867,1.141h-26.11c-0.651,0-1.188-0.26-1.609-0.783l-7.645-8.908
		c-0.345-0.428-0.518-0.949-0.518-1.566v-36.844c0-0.758,0.306-1.139,0.92-1.139h9.139c0.613,0,0.92,0.381,0.92,1.139V431.977
		L215.685,431.977z"/>
	<path fill="#FFFFFF" d="M310.501,403.829c0.308,0.381,0.462,0.902,0.462,1.568v11.4c0,0.951-0.251,1.736-0.751,2.354l-4.854,5.629
		l6.413,16.746c0.154,0.381,0.261,0.713,0.318,0.998c0.057,0.283,0.087,0.641,0.087,1.068v0.783c0,0.381-0.049,0.689-0.146,0.926
		c-0.097,0.238-0.355,0.357-0.779,0.357h-8.726c-0.425,0-0.731-0.262-0.925-0.785l-5.836-16.959h-20.627v16.604
		c0,0.762-0.309,1.141-0.924,1.141h-9.071c-0.578,0-0.867-0.379-0.867-1.141v-46.035c0-1.377,0.539-2.066,1.618-2.066h37.27
		c0.692,0,1.271,0.285,1.732,0.855L310.501,403.829z M297.038,404.327c-0.231-0.285-0.54-0.428-0.926-0.428h-19.991
		c-0.655,0-0.982,0.451-0.982,1.354v15.465h21.09l3.467-3.992c0.27-0.332,0.404-0.664,0.404-0.998v-7.125
		c0-0.428-0.136-0.809-0.404-1.141L297.038,404.327z"/>
	<path fill="#FFFFFF" d="M361.231,403.686c0.424,0.523,0.636,1.164,0.636,1.924v30.857c0,0.76-0.212,1.4-0.636,1.924l-5.604,6.627
		c-0.348,0.428-0.81,0.643-1.388,0.643H322.75c-0.577,0-1.04-0.215-1.388-0.643l-5.604-6.627c-0.425-0.521-0.637-1.164-0.637-1.924
		V405.61c0-0.76,0.212-1.4,0.637-1.924l5.604-6.627c0.348-0.428,0.811-0.643,1.388-0.643h31.489c0.578,0,1.04,0.215,1.388,0.643
		L361.231,403.686z M348,404.469c-0.31-0.379-0.676-0.568-1.099-0.568h-16.813c-0.425,0-0.79,0.189-1.099,0.568l-2.6,3.137
		c-0.271,0.332-0.404,0.76-0.404,1.281v24.303c0,0.521,0.134,0.949,0.404,1.281l2.6,3.137c0.309,0.381,0.674,0.568,1.099,0.568
		h16.813c0.423,0,0.789-0.188,1.099-0.568l2.601-3.137c0.269-0.332,0.404-0.76,0.404-1.281v-24.303c0-0.521-0.137-0.949-0.404-1.281
		L348,404.469z"/>
	<path fill="#FFFFFF" d="M413.003,403.686c0.424,0.523,0.636,1.164,0.636,1.924v30.857c0,0.76-0.212,1.4-0.636,1.924l-5.604,6.627
		c-0.347,0.428-0.809,0.643-1.387,0.643h-31.49c-0.577,0-1.04-0.215-1.387-0.643l-5.604-6.627c-0.425-0.521-0.636-1.164-0.636-1.924
		V405.61c0-0.76,0.211-1.4,0.636-1.924l5.604-6.627c0.347-0.428,0.81-0.643,1.387-0.643h31.49c0.578,0,1.04,0.215,1.387,0.643
		L413.003,403.686z M399.771,404.469c-0.309-0.379-0.675-0.568-1.098-0.568h-16.814c-0.424,0-0.79,0.189-1.098,0.568l-2.601,3.137
		c-0.271,0.332-0.403,0.76-0.403,1.281v24.303c0,0.521,0.134,0.949,0.403,1.281l2.601,3.137c0.308,0.381,0.674,0.568,1.098,0.568
		h16.814c0.423,0,0.789-0.188,1.098-0.568l2.601-3.137c0.27-0.332,0.404-0.76,0.404-1.281v-24.303c0-0.521-0.136-0.949-0.404-1.281
		L399.771,404.469z"/>
	<path fill="#FFFFFF" d="M456.685,402.831c0,0.713-0.289,1.07-0.867,1.07h-21.782c-0.347,0-0.636,0.143-0.866,0.424l-2.773,3.191
		c-0.231,0.285-0.347,0.641-0.347,1.064v11.068h25.364c0.578,0,0.867,0.383,0.867,1.15v5.18c0,0.77-0.289,1.15-0.867,1.15h-25.364
		v17.389c0,0.762-0.31,1.141-0.926,1.141h-9.187c-0.578,0-0.867-0.379-0.867-1.141v-39.123c0-0.666,0.153-1.188,0.463-1.568
		l5.604-6.627c0.423-0.521,0.942-0.783,1.56-0.783h29.121c0.578,0,0.867,0.381,0.867,1.139V402.831z"/>
	<path fill="#FFFFFF" d="M472.515,444.518c0,0.762-0.308,1.143-0.92,1.143h-9.139c-0.613,0-0.92-0.381-0.92-1.143v-46.961
		c0-0.758,0.307-1.139,0.92-1.139h9.139c0.612,0,0.92,0.381,0.92,1.139V444.518z"/>
	<path fill="#FFFFFF" d="M524.518,443.735c0,1.281-0.482,1.924-1.444,1.924h-5.721c-1.078,0-2.021-0.498-2.831-1.496l-27.503-31.854
		v32.209c0,0.762-0.289,1.143-0.867,1.143h-6.413c-0.578,0-0.867-0.381-0.867-1.143v-46.176c0-1.283,0.481-1.924,1.445-1.924h5.72
		c1.078,0,2.022,0.498,2.831,1.496l27.272,31.998v-32.354c0-0.76,0.308-1.141,0.925-1.141h6.587c0.577,0,0.866,0.381,0.866,1.141
		V443.735z"/>
	<path fill="#FFFFFF" d="M571.491,402.831c0,0.713-0.289,1.07-0.866,1.07h-25.076c-0.539,0-0.981,0.213-1.328,0.641l-3.063,3.564
		c-0.192,0.236-0.289,0.547-0.289,0.926v23.16c0,0.475,0.136,0.879,0.404,1.211l3.756,4.348c0.231,0.285,0.521,0.428,0.866,0.428
		h17.276c0.615,0,0.925-0.451,0.925-1.354v-17.459c0-0.76,0.289-1.141,0.866-1.141h7.106c0.615,0,0.925,0.381,0.925,1.141v24.158
		c0,1.424-0.56,2.137-1.676,2.137h-31.664c-0.577,0-1.06-0.213-1.444-0.643l-7.8-9.049c-0.347-0.428-0.521-0.951-0.521-1.568
		v-29.002c0-0.617,0.174-1.141,0.521-1.568l5.604-6.627c0.423-0.522,0.925-0.785,1.502-0.785h33.107
		c0.577,0,0.866,0.381,0.866,1.141v5.271H571.491z"/>
</g>
<g id="Шар_4">
</g>
<g id="Шар_3">
</g>
<g id="Шар_2">
</g>
</svg>
