<?xml version="1.0" encoding="utf-8"?>
<!-- Generator: Adobe Illustrator 15.0.0, SVG Export Plug-In . SVG Version: 6.00 Build 0)  -->
<!DOCTYPE svg PUBLIC "-//W3C//DTD SVG 1.1//EN" "http://www.w3.org/Graphics/SVG/1.1/DTD/svg11.dtd">
<svg version="1.1" id="Шар_1" xmlns="http://www.w3.org/2000/svg" xmlns:xlink="http://www.w3.org/1999/xlink" x="0px" y="0px"
	 width="582.393px" height="350.907px" viewBox="0 0 582.393 350.907" enable-background="new 0 0 582.393 350.907"
	 xml:space="preserve">
<g id="Шар_5">
</g>
<g id="Шар_7">
</g>
<g id="Шар_6">
</g>
<polygon fill="#FFFFFF" points="346.331,318.473 236.063,318.473 236.063,208.204 236.063,126.311 203.629,158.745 203.629,350.907 
	378.767,350.907 378.767,318.473 "/>
<polygon fill="#FFFFFF" points="570.925,350.907 525.068,350.907 489.036,314.874 489.036,350.907 456.603,350.907 456.603,282.456 
	456.327,282.18 428.226,254.062 428.226,350.907 395.792,350.907 395.792,175.771 "/>
<polygon fill="#FFFFFF" points="186.604,350.907 186.604,318.473 89.766,318.473 186.604,221.635 186.604,175.771 11.468,350.907 
	"/>
<polygon fill="#FFFFFF" points="559.458,314.129 291.196,45.865 22.933,314.129 0,291.196 291.196,0 582.394,291.196 "/>
<g id="Шар_4">
</g>
<g id="Шар_3">
</g>
<g id="Шар_2">
</g>
</svg>
